<svg version="1.1" viewBox="0.0 0.0 188.9763779527559 188.9763779527559" fill="none" stroke="none" stroke-linecap="square" stroke-miterlimit="10" xmlns:xlink="http://www.w3.org/1999/xlink" xmlns="http://www.w3.org/2000/svg"><clipPath id="p.0"><path d="m0 0l188.97638 0l0 188.97638l-188.97638 0l0 -188.97638z" clip-rule="nonzero"/></clipPath><g clip-path="url(#p.0)"><path fill="#000000" fill-opacity="0.0" d="m0 0l188.97638 0l0 188.97638l-188.97638 0z" fill-rule="evenodd"/><path fill="#000000" fill-opacity="0.0" d="m20.787401 38.535923l0 0c0 -13.568211 10.999208 -24.56742 24.56742 -24.56742l98.26673 0l0 0c6.515686 0 12.764511 2.5883465 17.371796 7.195631c4.6072845 4.6072845 7.195633 10.856106 7.195633 17.371788l0 111.90454c0 13.568207 -10.999207 24.567413 -24.567429 24.567413l-98.26673 0c-13.568211 0 -24.56742 -10.999207 -24.56742 -24.567413z" fill-rule="evenodd"/><path stroke="#ffffff" stroke-width="12.0" stroke-linejoin="round" stroke-linecap="butt" d="m20.787401 38.535923l0 0c0 -13.568211 10.999208 -24.56742 24.56742 -24.56742l98.26673 0l0 0c6.515686 0 12.764511 2.5883465 17.371796 7.195631c4.6072845 4.6072845 7.195633 10.856106 7.195633 17.371788l0 111.90454c0 13.568207 -10.999207 24.567413 -24.567429 24.567413l-98.26673 0c-13.568211 0 -24.56742 -10.999207 -24.56742 -24.567413z" fill-rule="evenodd"/><path fill="#ffffff" d="m26.551182 42.81935l0 0c0 -12.507109 10.139015 -22.646122 22.646122 -22.646122l90.581764 0l0 0c6.006134 0 11.766266 2.3859234 16.01323 6.6328945c4.2469788 4.246971 6.632904 10.007101 6.632904 16.013227l0 103.33768c0 12.507111 -10.139023 22.646118 -22.646133 22.646118l-90.581764 0c-12.507107 0 -22.646122 -10.139008 -22.646122 -22.646118z" fill-rule="evenodd"/><path stroke="#105280" stroke-width="8.0" stroke-linejoin="round" stroke-linecap="butt" d="m26.551182 42.81935l0 0c0 -12.507109 10.139015 -22.646122 22.646122 -22.646122l90.581764 0l0 0c6.006134 0 11.766266 2.3859234 16.01323 6.6328945c4.2469788 4.246971 6.632904 10.007101 6.632904 16.013227l0 103.33768c0 12.507111 -10.139023 22.646118 -22.646133 22.646118l-90.581764 0c-12.507107 0 -22.646122 -10.139008 -22.646122 -22.646118z" fill-rule="evenodd"/><path fill="#000000" fill-opacity="0.0" d="m94.64189 53.46218l23.642204 13.590202l-0.13102722 35.037407" fill-rule="evenodd"/><path stroke="#105280" stroke-width="4.0" stroke-linejoin="round" stroke-linecap="butt" d="m94.64189 53.46218l23.642204 13.590202l-0.13102722 35.037407" fill-rule="evenodd"/><path fill="#000000" fill-opacity="0.0" d="m105.36858 73.51452l-0.02267456 6.4772873" fill-rule="evenodd"/><path stroke="#105280" stroke-width="4.0" stroke-linejoin="round" stroke-linecap="butt" d="m105.36858 73.51452l-0.02267456 6.4772873" fill-rule="evenodd"/><path fill="#1d74ab" d="m72.1663 102.91713l-0.1990509 -56.46947l21.97165 -9.710892l-0.39559174 65.98363z" fill-rule="evenodd"/><path stroke="#105280" stroke-width="4.0" stroke-linejoin="round" stroke-linecap="butt" d="m72.1663 102.91713l-0.1990509 -56.46947l21.97165 -9.710892l-0.39559174 65.98363z" fill-rule="evenodd"/><path fill="#1d74ab" d="m63.561573 103.239944l0 -30.35852l18.096378 -6.742134l0.00504303 36.699608z" fill-rule="evenodd"/><path stroke="#105280" stroke-width="4.0" stroke-linejoin="round" stroke-linecap="butt" d="m63.561573 103.239944l0 -30.35852l18.096378 -6.742134l0.00504303 36.699608z" fill-rule="evenodd"/><path fill="#000000" d="m50.267715 103.39628l0.002521515 0.45401764l88.43843 -0.51203156l0 -0.4212265z" fill-rule="evenodd"/><path stroke="#105280" stroke-width="4.0" stroke-linejoin="round" stroke-linecap="butt" d="m50.267715 103.39628l0.002521515 0.45401764l88.43843 -0.51203156l0 -0.4212265z" fill-rule="evenodd"/><path fill="#ffffff" d="m0.72440946 117.50671l0 0c0 -4.0559616 3.288011 -7.343979 7.3439784 -7.343979l172.8396 0c1.9477386 0 3.8157196 0.7737427 5.192978 2.151001c1.3772583 1.3772659 2.151001 3.2452393 2.151001 5.192978l0 29.375038c0 4.055969 -3.2880096 7.343979 -7.343979 7.343979l-172.8396 0c-4.0559673 0 -7.3439784 -3.2880096 -7.3439784 -7.343979z" fill-rule="evenodd"/><path fill="#105280" d="m37.222565 131.8636l0 1.203125q0 2.921875 -0.796875 5.25q-0.78125 2.3125 -2.234375 3.9375q-1.4375 1.625 -3.437502 2.5q-1.984375 0.859375 -4.421875 0.859375q-2.40625 0 -4.40625 -0.859375q-1.984375 -0.875 -3.453125 -2.5q-1.453125 -1.625 -2.25 -3.9375q-0.796875 -2.328125 -0.796875 -5.25l0 -1.203125q0 -2.9375 0.78125 -5.25q0.796875 -2.3125 2.25 -3.9375q1.453125 -1.640625 3.4375 -2.5q2.0 -0.875 4.40625 -0.875q2.421875 0 4.421875 0.875q2.000002 0.859375 3.437502 2.5q1.453125 1.625 2.25 3.9375q0.8125 2.3125 0.8125 5.25zm-5.328127 1.203125l0 -1.25q0 -2.03125 -0.375 -3.578125q-0.359375 -1.546875 -1.09375 -2.59375q-0.71875 -1.0625 -1.75 -1.59375q-1.03125 -0.546875 -2.375 -0.546875q-1.328125 0 -2.359375 0.546875q-1.03125 0.53125 -1.75 1.59375q-0.703125 1.046875 -1.078125 2.59375q-0.359375 1.546875 -0.359375 3.578125l0 1.25q0 2.03125 0.359375 3.59375q0.375 1.546875 1.09375 2.609375q0.71875 1.0625 1.75 1.609375q1.046875 0.546875 2.375 0.546875q1.34375 0 2.375 -0.546875q1.046875 -0.546875 1.75 -1.609375q0.703125 -1.0625 1.0625 -2.609375q0.375 -1.5625 0.375 -3.59375zm8.804689 -14.8125l5.0625 0l0 22.640625l-0.515625 4.359375l-4.546875 0l0 -27.0zm17.109375 17.296875l0 0.375q0 2.125 -0.453125 3.90625q-0.453125 1.765625 -1.390625 3.0625q-0.921875 1.28125 -2.3125 2.0q-1.375 0.71875 -3.234375 0.71875q-1.734375 0 -3.015625 -0.703125q-1.265625 -0.71875 -2.140625 -2.0q-0.859375 -1.28125 -1.390625 -3.0q-0.515625 -1.71875 -0.78125 -3.765625l0 -0.8125q0.265625 -2.03125 0.78125 -3.75q0.53125 -1.734375 1.390625 -3.015625q0.875 -1.28125 2.140625 -1.984375q1.265625 -0.703125 2.984375 -0.703125q1.875 0 3.265625 0.71875q1.40625 0.703125 2.328125 2.0q0.921875 1.296875 1.375 3.0625q0.453125 1.765625 0.453125 3.890625zm-5.0625 0.375l0 -0.375q0 -1.15625 -0.171875 -2.1875q-0.171875 -1.03125 -0.578125 -1.8125q-0.390625 -0.78125 -1.09375 -1.234375q-0.6875 -0.46875 -1.78125 -0.46875q-1.03125 0 -1.765625 0.359375q-0.71875 0.34375 -1.1875 0.984375q-0.453125 0.625 -0.6875 1.5q-0.234375 0.875 -0.28125 1.90625l0 2.3125q0.046875 1.375 0.453125 2.453125q0.421875 1.0625 1.265625 1.671875q0.859375 0.59375 2.234375 0.59375q1.078125 0 1.78125 -0.421875q0.703125 -0.421875 1.09375 -1.1875q0.390625 -0.78125 0.546875 -1.828125q0.171875 -1.046875 0.171875 -2.265625zm13.265625 -5.546875l0 14.875l-5.0625 0l0 -19.015625l4.765625 0l0.296875 4.140625zm5.734375 -4.265625l-0.09375 4.6875q-0.359375 -0.046875 -0.890625 -0.09375q-0.515625 -0.046875 -0.9375 -0.046875q-1.0625 0 -1.859375 0.28125q-0.78125 0.265625 -1.296875 0.796875q-0.515625 0.53125 -0.78125 1.28125q-0.25 0.75 -0.28125 1.71875l-1.015625 -0.3125q0 -1.84375 0.359375 -3.390625q0.375 -1.5625 1.078125 -2.71875q0.71875 -1.171875 1.75 -1.796875q1.046875 -0.640625 2.390625 -0.640625q0.421875 0 0.859375 0.0625q0.4375 0.0625 0.71875 0.171875zm12.072266 14.84375l0 -8.46875q0 -0.90625 -0.296875 -1.5625q-0.296875 -0.671875 -0.921875 -1.03125q-0.625 -0.375 -1.609375 -0.375q-0.84375 0 -1.46875 0.296875q-0.609375 0.28125 -0.953125 0.828125q-0.328125 0.53125 -0.328125 1.25l-5.0625 0q0 -1.21875 0.5625 -2.296875q0.5625 -1.09375 1.640625 -1.921875q1.078125 -0.84375 2.5625 -1.3125q1.484375 -0.484375 3.328125 -0.484375q2.21875 0 3.9375 0.75q1.71875 0.734375 2.703125 2.21875q1.0 1.46875 1.0 3.671875l0 8.140625q0 1.5625 0.1875 2.5625q0.203125 1.0 0.578125 1.734375l0 0.296875l-5.125 0q-0.359375 -0.78125 -0.546875 -1.9375q-0.1875 -1.171875 -0.1875 -2.359375zm0.671875 -7.28125l0.03125 2.859375l-2.828125 0q-1.0 0 -1.75 0.234375q-0.734375 0.21875 -1.203125 0.640625q-0.46875 0.40625 -0.703125 0.953125q-0.21875 0.546875 -0.21875 1.1875q0 0.65625 0.296875 1.171875q0.3125 0.515625 0.875 0.8125q0.5625 0.296875 1.3125 0.296875q1.140625 0 1.984375 -0.453125q0.84375 -0.46875 1.3125 -1.125q0.46875 -0.671875 0.484375 -1.28125l1.328125 2.15625q-0.28125 0.71875 -0.765625 1.5q-0.46875 0.765625 -1.21875 1.4375q-0.734375 0.671875 -1.78125 1.109375q-1.03125 0.4375 -2.453125 0.4375q-1.8125 0 -3.28125 -0.734375q-1.46875 -0.734375 -2.328125 -2.015625q-0.84375 -1.296875 -0.84375 -2.953125q0 -1.5 0.5625 -2.65625q0.5625 -1.15625 1.65625 -1.953125q1.109375 -0.8125 2.75 -1.21875q1.65625 -0.40625 3.84375 -0.40625l2.9375 0zm23.484375 3.09375l5.25 0q-0.15625 2.578125 -1.421875 4.578125q-1.25 2.0 -3.5 3.140625q-2.234375 1.125 -5.375 1.125q-2.46875 0 -4.421875 -0.859375q-1.9375 -0.859375 -3.328125 -2.453125q-1.375 -1.59375 -2.09375 -3.859375q-0.71875 -2.28125 -0.71875 -5.09375l0 -1.765625q0 -2.8125 0.734375 -5.09375q0.75 -2.28125 2.140625 -3.875q1.40625 -1.59375 3.359375 -2.453125q1.953125 -0.875 4.359375 -0.875q3.203125 0 5.40625 1.171875q2.203125 1.15625 3.421875 3.203125q1.234375 2.03125 1.46875 4.625l-5.265625 0q-0.09375 -1.546875 -0.625 -2.625q-0.515625 -1.078125 -1.578125 -1.625q-1.0625 -0.5625 -2.828125 -0.5625q-1.3125 0 -2.296875 0.5q-0.984375 0.484375 -1.65625 1.484375q-0.671875 1.0 -1.0 2.53125q-0.3125 1.515625 -0.3125 3.546875l0 1.8125q0 1.984375 0.296875 3.5q0.296875 1.5 0.921875 2.53125q0.625 1.015625 1.609375 1.546875q1.0 0.515625 2.40625 0.515625q1.65625 0 2.71875 -0.53125q1.078125 -0.53125 1.640625 -1.5625q0.578125 -1.03125 0.6875 -2.578125zm13.7421875 -18.515625l0 27.0l-5.078125 0l0 -27.0l5.078125 0zm14.4492035 22.703125l0 -8.46875q0 -0.90625 -0.296875 -1.5625q-0.296875 -0.671875 -0.921875 -1.03125q-0.625 -0.375 -1.609375 -0.375q-0.84375 0 -1.46875 0.296875q-0.609375 0.28125 -0.953125 0.828125q-0.32810974 0.53125 -0.32810974 1.25l-5.0625 0q0 -1.21875 0.5625 -2.296875q0.5625 -1.09375 1.640625 -1.921875q1.078125 -0.84375 2.5625 -1.3125q1.4843597 -0.484375 3.3281097 -0.484375q2.21875 0 3.9375 0.75q1.71875 0.734375 2.703125 2.21875q1.0 1.46875 1.0 3.671875l0 8.140625q0 1.5625 0.1875 2.5625q0.203125 1.0 0.578125 1.734375l0 0.296875l-5.125 0q-0.359375 -0.78125 -0.546875 -1.9375q-0.1875 -1.171875 -0.1875 -2.359375zm0.671875 -7.28125l0.03125 2.859375l-2.828125 0q-1.0 0 -1.75 0.234375q-0.734375 0.21875 -1.203125 0.640625q-0.46873474 0.40625 -0.70310974 0.953125q-0.21875 0.546875 -0.21875 1.1875q0 0.65625 0.296875 1.171875q0.3125 0.515625 0.87498474 0.8125q0.5625 0.296875 1.3125 0.296875q1.140625 0 1.984375 -0.453125q0.84375 -0.46875 1.3125 -1.125q0.46875 -0.671875 0.484375 -1.28125l1.328125 2.15625q-0.28125 0.71875 -0.765625 1.5q-0.46875 0.765625 -1.21875 1.4375q-0.734375 0.671875 -1.78125 1.109375q-1.03125 0.4375 -2.453125 0.4375q-1.8124847 0 -3.2812347 -0.734375q-1.46875 -0.734375 -2.328125 -2.015625q-0.84375 -1.296875 -0.84375 -2.953125q0 -1.5 0.5625 -2.65625q0.5625 -1.15625 1.65625 -1.953125q1.109375 -0.8125 2.75 -1.21875q1.6562347 -0.40625 3.8437347 -0.40625l2.9375 0zm13.390625 -3.296875l0 14.875l-5.0625 0l0 -19.015625l4.765625 0l0.296875 4.140625zm5.734375 -4.265625l-0.09375 4.6875q-0.359375 -0.046875 -0.890625 -0.09375q-0.515625 -0.046875 -0.9375 -0.046875q-1.0625 0 -1.859375 0.28125q-0.78125 0.265625 -1.296875 0.796875q-0.515625 0.53125 -0.78125 1.28125q-0.25 0.75 -0.28125 1.71875l-1.015625 -0.3125q0 -1.84375 0.359375 -3.390625q0.375 -1.5625 1.078125 -2.71875q0.71875 -1.171875 1.75 -1.796875q1.046875 -0.640625 2.390625 -0.640625q0.421875 0 0.859375 0.0625q0.4375 0.0625 0.71875 0.171875zm12.072266 14.84375l0 -8.46875q0 -0.90625 -0.296875 -1.5625q-0.296875 -0.671875 -0.921875 -1.03125q-0.625 -0.375 -1.609375 -0.375q-0.84375 0 -1.46875 0.296875q-0.609375 0.28125 -0.953125 0.828125q-0.328125 0.53125 -0.328125 1.25l-5.0625 0q0 -1.21875 0.5625 -2.296875q0.5625 -1.09375 1.640625 -1.921875q1.078125 -0.84375 2.5625 -1.3125q1.484375 -0.484375 3.328125 -0.484375q2.21875 0 3.9375 0.75q1.71875 0.734375 2.703125 2.21875q1.0 1.46875 1.0 3.671875l0 8.140625q0 1.5625 0.1875 2.5625q0.203125 1.0 0.578125 1.734375l0 0.296875l-5.125 0q-0.359375 -0.78125 -0.546875 -1.9375q-0.1875 -1.171875 -0.1875 -2.359375zm0.671875 -7.28125l0.03125 2.859375l-2.828125 0q-1.0 0 -1.75 0.234375q-0.734375 0.21875 -1.203125 0.640625q-0.46875 0.40625 -0.703125 0.953125q-0.21875 0.546875 -0.21875 1.1875q0 0.65625 0.296875 1.171875q0.3125 0.515625 0.875 0.8125q0.5625 0.296875 1.3125 0.296875q1.140625 0 1.984375 -0.453125q0.84375 -0.46875 1.3125 -1.125q0.46875 -0.671875 0.484375 -1.28125l1.328125 2.15625q-0.28125 0.71875 -0.765625 1.5q-0.46875 0.765625 -1.21875 1.4375q-0.734375 0.671875 -1.78125 1.109375q-1.03125 0.4375 -2.453125 0.4375q-1.8125 0 -3.28125 -0.734375q-1.46875 -0.734375 -2.328125 -2.015625q-0.84375 -1.296875 -0.84375 -2.953125q0 -1.5 0.5625 -2.65625q0.5625 -1.15625 1.65625 -1.953125q1.109375 -0.8125 2.75 -1.21875q1.65625 -0.40625 3.84375 -0.40625l2.9375 0z" fill-rule="nonzero"/></g></svg>